<?xml version="1.0" encoding="utf-8"?>
<!-- Generator: Adobe Illustrator 21.0.0, SVG Export Plug-In . SVG Version: 6.00 Build 0)  -->
<svg version="1.1" id="Capa_1" xmlns="http://www.w3.org/2000/svg" xmlns:xlink="http://www.w3.org/1999/xlink" x="0px" y="0px"
	 viewBox="0 0 116.7 39.5" style="enable-background:new 0 0 116.7 39.5;" xml:space="preserve">
<style type="text/css">
	.st0{fill:#FFFFFF;}
</style>
<g>
	<g>
		<g>
			<path class="st0" d="M22.4,2.1c2.3,0.7,4.7,1.2,6.8,2.6c3.4,2.2,5.6,5.2,6.2,9.3c0.1,0.4,0.3,0.9,0.4,1.3
				c0.6-0.4,1.1-0.8,1.6-1.1c0.7-0.4,1.5-0.6,2.3,0c0.8,0.6,1.3,1.6,0.9,2.5c-0.8,1.8-1.3,3.7-3.5,4.5c-1.4,0.5-2.8,1.1-3.5,2.7
				c-0.2,0.6-0.7,0.6-0.9,0.1c-1.1-2.6-3.2-4.5-5-6.6c-0.3-0.4-0.4-0.9-0.6-1.4c0,0,0,0,0,0c0.3-1,0.5-2.2,1.9-2.4
				c2.1-0.3,3.8,0.6,5.2,2.3c-0.2-2.9-1.6-5.2-3.6-7.1c-3-2.6-6.4-4.5-10.6-4.5c-3.3,0-5.8,1.6-8.2,3.5C9.4,10,8,12.9,7,16
				c-1.2,3.5-0.6,6.7,0.9,9.6c1.1,2.2,3.2,4,5.4,5.4c4.6,3.1,9.8,3.9,15.1,3c2.6-0.4,4.9-2.3,6.1-5c0.2-0.4,0.1-1.1,0.7-1.4
				c0.9,0.8,0.6,1.9,0.7,2.9c0.6-0.1,0.9-0.9,1.6-0.8c0.1,2.3-1.5,3.4-3.1,4.5c-5.1,3.7-10.7,3.8-16.5,2.1
				c-3.9-1.1-7.6-2.6-10.4-5.8c-1.8-2-3.2-4.2-3.5-7c0-0.2-0.1-0.4-0.3-0.5c0-2,0-4,0-5.9c0.6-0.7,0.5-1.6,0.7-2.4
				c1.3-4.6,3.4-8.6,7.9-10.9c1.6-0.8,3.4-1,5.1-1.7C19,2.1,20.7,2.1,22.4,2.1z"/>
		</g>
		<g>
			<path class="st0" d="M20.4,33C20.4,33,20.4,33,20.4,33c-0.9,0-1.2-0.7-1.5-1.2l0-0.1c-0.4-0.8,0.3-1.2,0.7-1.4l0.1-0.1
				c0.1-0.1,0.2-0.2,0.3-0.3c0,0,0,0,0,0c-0.9-0.7-1.9-1.2-2.8-1.7l-0.5-0.2l0.2-0.2c1-1,1.5-2.3,2-3.7c0,0-0.1,0-0.1,0
				c-0.2,0-0.3-0.1-0.4-0.1c-1,0-1.5-0.4-1.8-1.2c-0.1-0.4,0-0.9,0.7-1.3c0.5-0.3,1.3-0.5,2,0.5c0.1,0.1,0.2,0.3,0.4,0.3
				c0,0,0,0,0,0c0.2,0,0.3-0.2,0.5-0.4c0.3-0.5,0.6-1.1,0.9-1.6c0.1-0.2,0.2-0.5,0.4-0.7l0.1-0.1l0.1,0.1c0.2,0.1,0.4,0.1,0.6,0.2
				c0.4,0.2,0.9,0.3,1.3,0.6c0.1,0.1,0.3,0.1,0.4,0.2c0.5,0.3,1.1,0.5,1.1,1c0,0.4-0.3,0.8-1,1.2c-0.1,0.1-0.2,0.2-0.2,0.3
				c0,0.2,0,0.4,0.2,0.7c0.3,0.5,0.7,0.7,1.1,0.6c0.5-0.1,0.6-0.7,0.6-1c-0.1-0.6,0-1,0.2-1.2c0.3-0.3,0.8-0.1,1.3,0.1
				c0.2,0.1,0.4,0.2,0.6,0.3c0.2,0.1,0.4,0.2,0.7,0.3c0.9,0.3,1.5,0.7,1.6,1.2c0.2,0.5-0.1,1.1-0.6,1.8c-0.5,0.7-0.6,1-0.5,1.1
				c0.1,0.2,0.5,0.3,1,0.3c0.6,0,1.1,0.4,1.2,1.2c0,0.7-0.3,1.3-0.9,1.6c-0.7,0.4-1.3,0.3-1.6-0.1c-0.3-0.4-0.6-0.6-0.8-0.6
				c-0.3,0-0.5,0.5-0.8,1c-1.2,2.3-1.4,2.3-3.7,1.2l0,0c-0.1-0.1-0.3-0.1-0.4-0.2c-0.3-0.2-0.6-0.4-0.7-0.3c-0.1,0-0.2,0.2-0.3,0.9
				C22.1,32.7,21.2,33,20.4,33z M17.4,27.8L17.4,27.8c1.1,0.6,2.1,1.1,3.1,1.9l0.1,0.1L20.5,30c-0.1,0.1-0.1,0.1-0.2,0.2
				c-0.1,0.1-0.2,0.2-0.4,0.3l-0.1,0.1c-0.5,0.3-0.8,0.5-0.6,1l0,0.1c0.2,0.5,0.4,1,1.1,1c0.7,0,1.4-0.2,1.5-0.8
				c0.1-0.7,0.2-1,0.5-1.2c0.3-0.2,0.7,0.1,1.1,0.3c0.1,0.1,0.2,0.2,0.4,0.2l0,0c2.1,1,2.1,1,3.2-1.1c0.3-0.6,0.6-1.1,1.1-1.2
				c0.3,0,0.7,0.2,1.1,0.7c0.1,0.1,0.4,0.5,1.2,0c0.5-0.3,0.7-0.7,0.7-1.3c0-0.6-0.5-0.9-0.8-0.9c0,0,0,0-0.1,0
				c-0.7,0-1.1-0.2-1.3-0.5c-0.2-0.5,0.2-1.1,0.5-1.5c0.5-0.6,0.7-1.1,0.6-1.5c-0.1-0.4-0.6-0.7-1.4-1c-0.3-0.1-0.5-0.2-0.7-0.3
				c-0.2-0.1-0.4-0.2-0.5-0.3c-0.4-0.1-0.8-0.3-0.9-0.1c-0.1,0.1-0.2,0.4-0.1,0.8c0.1,0.5-0.2,1.2-0.9,1.4c-0.4,0.1-1,0-1.5-0.7
				c-0.2-0.3-0.3-0.7-0.3-0.9c0-0.2,0.2-0.4,0.4-0.5c0.7-0.5,0.9-0.8,0.9-0.9c0-0.3-0.5-0.5-0.9-0.7c-0.2-0.1-0.3-0.1-0.4-0.2
				c-0.4-0.2-0.8-0.4-1.3-0.5c-0.2-0.1-0.3-0.1-0.5-0.2c-0.1,0.2-0.2,0.4-0.3,0.6c-0.3,0.5-0.6,1.1-0.9,1.6
				c-0.2,0.4-0.5,0.6-0.8,0.6c-0.3,0-0.5-0.2-0.7-0.5c-0.4-0.7-0.9-0.8-1.5-0.4c-0.5,0.3-0.6,0.6-0.5,1c0.2,0.6,0.6,0.9,1.4,0.9
				c0.2,0,0.3,0,0.5,0.1c0.1,0,0.2,0,0.3,0.1l0.2,0L19.4,24C18.9,25.4,18.3,26.7,17.4,27.8z"/>
		</g>
		<g>
			<path class="st0" d="M21.8,19.5L21.8,19.5c-0.3-0.2-0.5-0.3-0.7-0.4c-0.5-0.3-1-0.5-1.5-0.8c-0.4-0.3-0.9-0.5-0.8-0.9
				c0-0.3,0.2-0.6,0.7-0.8c0.6-0.3,0.7-0.7,0.4-1.2c-0.3-0.5-0.7-0.7-1.2-0.7c-0.5,0.1-0.7,0.4-0.7,1.1c0,0.5-0.1,0.9-0.3,1
				c-0.3,0.2-0.8,0-1.3-0.2c-0.7-0.4-1.4-0.7-2.2-1.1L13.1,15l0.1-0.2c0.1-0.2,0.2-0.3,0.3-0.5c0.2-0.4,0.4-0.8,0.6-1.1
				c0-0.1,0.1-0.2,0.1-0.3c0.2-0.4,0.4-0.9,0.3-1.1c-0.1-0.1-0.3-0.2-1.1-0.2c-0.3,0-0.5-0.1-0.7-0.2c-0.2-0.2-0.3-0.5-0.3-0.8l0,0
				c0-0.6,0-1.2,0.7-1.6c0.1,0,0.1-0.1,0.2-0.1c0.5-0.2,1.2-0.5,1.7,0.1c0.3,0.4,0.5,0.5,0.7,0.5c0.2,0,0.4-0.2,0.6-0.6
				c1.5-2.5,1.7-2.5,4.3-1.2c0.2,0.1,0.4,0.2,0.7,0.3c0,0,0.1,0,0.1,0.1c0-0.9,0.2-1.9,1.5-2.2c0.7-0.1,1.3,0.1,1.8,0.9
				C25,7.1,25,7.5,25,7.8c-0.1,0.3-0.3,0.5-0.6,0.7c-0.6,0.3-0.7,0.5-0.7,0.6c0,0.1,0.4,0.3,0.7,0.5c0.1,0,0.2,0.1,0.3,0.1
				c1.1,0.6,1.6,0.9,1.8,1.4c0.1,0.5-0.2,1-0.8,2.1c-0.1,0.1-0.2,0.3-0.3,0.4c-0.2,0.4-0.5,0.8-0.4,1c0.1,0.1,0.3,0.3,1.2,0.2
				c0.6,0,1,0.7,1.2,1.1l0.2,0l-0.2,0.3c-0.6,1-1.1,1.6-1.7,1.7c-0.6,0.1-1.2-0.4-1.9-1.1c-0.3,0.3-0.5,0.7-0.6,1.1
				C22.8,18.5,22.6,19.1,21.8,19.5L21.8,19.5z M18.8,14.3c0.6,0,1.1,0.3,1.3,0.9c0.3,0.7,0.1,1.3-0.6,1.7c-0.3,0.2-0.5,0.4-0.5,0.5
				c0,0.2,0.5,0.5,0.7,0.6c0.5,0.3,1,0.5,1.5,0.8c0.2,0.1,0.4,0.2,0.6,0.3c0.5-0.3,0.8-0.8,1-1.4c0.2-0.5,0.4-1,0.8-1.3l0.1-0.1
				l0.1,0.1c0.9,0.9,1.3,1.2,1.7,1.2c0.4,0,0.8-0.5,1.4-1.5c-0.2-0.5-0.5-1-0.8-0.9c-0.9,0-1.4-0.1-1.6-0.4
				c-0.2-0.4,0.1-0.9,0.4-1.4c0.1-0.1,0.2-0.3,0.2-0.4c0.5-1,0.8-1.5,0.7-1.8c-0.1-0.3-0.6-0.6-1.6-1.2c-0.1,0-0.2-0.1-0.3-0.1
				c-0.4-0.2-0.8-0.4-0.8-0.8c0-0.3,0.3-0.6,0.9-0.9c0.2-0.1,0.4-0.3,0.4-0.5c0.1-0.2,0-0.5-0.2-0.8c-0.4-0.6-0.8-0.8-1.4-0.7
				c-0.9,0.2-1.3,0.8-1.2,2.1l0,0.3l-0.3-0.1c-0.1-0.1-0.3-0.1-0.4-0.2C21,8.2,20.8,8.1,20.6,8c-2.5-1.2-2.5-1.2-3.9,1.1
				c-0.3,0.5-0.6,0.8-0.9,0.8c-0.4,0-0.7-0.3-0.9-0.6c-0.4-0.5-0.7-0.3-1.3,0c-0.1,0-0.1,0.1-0.2,0.1c-0.5,0.2-0.5,0.6-0.5,1.3l0,0
				c0,0.3,0.1,0.5,0.2,0.6c0.1,0.1,0.3,0.2,0.4,0.1c0.7,0,1.2,0.1,1.4,0.4c0.2,0.4,0,0.9-0.3,1.4c0,0.1-0.1,0.2-0.1,0.3
				c-0.2,0.4-0.4,0.8-0.6,1.2c-0.1,0.1-0.1,0.2-0.2,0.3l0.8,0.4c0.7,0.4,1.4,0.7,2.2,1.1c0.2,0.1,0.7,0.3,0.9,0.2
				c0.1-0.1,0.2-0.3,0.1-0.7c-0.1-0.9,0.3-1.4,1-1.5C18.7,14.3,18.7,14.3,18.8,14.3z"/>
		</g>
		<g>
			<path class="st0" d="M12.5,28.7c-0.4,0-0.8-0.2-1.2-0.6c-0.4-0.4-0.6-0.8-0.6-1.1c0.1-0.3,0.3-0.6,0.8-0.9
				c0.2-0.1,0.5-0.3,0.5-0.4c0,0,0-0.2-0.4-0.4c-0.3-0.2-0.6-0.3-1-0.4c-0.9-0.3-1.7-0.7-1.8-1.5c-0.1-0.7,0.4-1.4,0.8-2.1
				c0.2-0.3,0.4-0.6,0.6-0.9c0-0.1,0-0.2,0.1-0.3c0,0,0,0,0-0.1c-0.1,0-0.3,0-0.4,0c-0.8-0.1-1.7-0.2-1.9-1.3
				c-0.1-0.4,0.1-1.1,1.1-1.6c1.1-0.6,1.7,0.1,2.3,0.8l0,0c0.3-0.3,0.6-0.8,0.8-1.2c0.3-0.6,0.5-1.2,1.1-1.5l0.1-0.1l1,0.5
				c0.7,0.4,1.4,0.7,2.2,1.1c0.2,0.1,0.7,0.3,0.9,0.2c0.1-0.1,0.2-0.3,0.1-0.7c-0.1-0.9,0.3-1.4,1-1.5c0.7-0.1,1.3,0.2,1.6,0.9
				c0.3,0.7,0.1,1.3-0.6,1.7c-0.3,0.2-0.5,0.4-0.5,0.5c0,0.2,0.5,0.5,0.7,0.6c0.5,0.3,1,0.5,1.5,0.8c0.2,0.1,0.4,0.2,0.7,0.3
				l0.1,0.1l0,0.1c0,0.1,0,0.2,0,0.3l0,0.1l0,0.1c-0.1,0.2-0.2,0.5-0.4,0.7c-0.3,0.5-0.6,1.1-0.9,1.6c-0.2,0.4-0.5,0.6-0.8,0.6
				c-0.3,0-0.5-0.2-0.7-0.5c-0.4-0.7-0.9-0.8-1.5-0.4c-0.5,0.3-0.6,0.6-0.5,1c0.2,0.6,0.6,0.9,1.4,0.9c0.2,0,0.3,0,0.5,0.1
				c0.1,0,0.2,0,0.3,0.1l0.2,0L19.4,24c-0.6,1.5-1.1,2.9-2.2,4l-0.1,0.1l-2.7-1.3c-0.4,1.1-1,1.7-1.6,1.9
				C12.7,28.7,12.6,28.7,12.5,28.7z M9.9,16.9c-0.2,0-0.4,0.1-0.6,0.2c-0.7,0.4-1,0.8-0.9,1.3c0.1,0.9,0.8,1,1.6,1
				c0.2,0,0.4,0,0.6,0.1l0.2,0l0,0.2c0,0.1,0,0.1,0,0.2c0,0.1,0,0.3-0.1,0.4c-0.2,0.3-0.4,0.7-0.6,1c-0.4,0.7-0.9,1.3-0.8,1.9
				c0.1,0.7,0.8,0.9,1.6,1.2c0.4,0.1,0.7,0.3,1,0.5c0.4,0.3,0.6,0.5,0.6,0.7c0,0.3-0.4,0.5-0.7,0.7c-0.4,0.2-0.6,0.4-0.6,0.6
				c0,0.2,0.1,0.5,0.5,0.8c0.4,0.4,0.8,0.5,1.2,0.5c0.6-0.1,1.1-0.8,1.5-1.9l0.1-0.2l2.8,1.4c0.9-1,1.4-2.3,2-3.6c0,0-0.1,0-0.1,0
				c-0.2,0-0.3-0.1-0.4-0.1c-1,0-1.5-0.4-1.8-1.2c-0.1-0.4,0-0.9,0.7-1.3c0.5-0.3,1.3-0.5,2,0.5c0.1,0.1,0.2,0.3,0.4,0.3
				c0,0,0,0,0,0c0.2,0,0.3-0.2,0.5-0.4c0.3-0.5,0.6-1.1,0.9-1.6c0.1-0.2,0.2-0.4,0.3-0.6c0-0.1,0-0.1,0-0.2
				c-0.2-0.1-0.4-0.2-0.6-0.3c-0.5-0.3-1-0.5-1.5-0.8c-0.4-0.3-0.9-0.5-0.8-0.9c0-0.3,0.2-0.6,0.7-0.8c0.6-0.3,0.7-0.7,0.4-1.2
				c-0.3-0.5-0.7-0.7-1.2-0.7c-0.5,0.1-0.7,0.4-0.7,1.1c0,0.5-0.1,0.9-0.3,1c-0.3,0.2-0.8,0-1.3-0.2c-0.7-0.4-1.4-0.7-2.2-1.1
				l-0.8-0.4c-0.4,0.3-0.7,0.8-0.9,1.4c-0.2,0.5-0.5,1.1-1,1.5l-0.1,0.1l-0.2-0.3C10.7,17.3,10.4,16.9,9.9,16.9z"/>
		</g>
	</g>
	<g>
		<path class="st0" d="M53,8.1c-0.1,0.4-0.3,1.1-0.4,2c0,0.2-0.1,0.3-0.3,0.3c-0.1,0-0.2-0.1-0.3-0.2c-0.1-0.4-0.2-0.7-0.4-0.9
			C51.5,9,51.3,8.9,51,8.9c-0.3-0.1-1.1-0.1-2.4-0.1c-0.4,0-0.7,0.1-0.7,0.4l-0.5,4c0,0.1,0,0.2,0.1,0.2c0,0,0.1,0,0.2,0
			c0.5,0,1.2,0,2.2-0.1c0.2,0,0.3-0.1,0.4-0.2c0.1-0.1,0.2-0.4,0.3-0.8c0.1-0.2,0.2-0.3,0.4-0.3c0.2,0,0.2,0.1,0.2,0.3
			c-0.2,0.6-0.4,1.7-0.5,3.1c0,0.1-0.1,0.2-0.3,0.2c-0.2,0-0.2-0.1-0.3-0.3c0-0.7-0.3-1.1-0.7-1.2s-1-0.1-1.9-0.1
			c-0.1,0-0.1,0-0.1,0.1c-0.2,1.1-0.3,2.4-0.5,4c0,0.3,0,0.5,0.2,0.6c0.2,0.1,0.5,0.2,1,0.2c0.3,0,0.4,0.2,0.3,0.4
			c0,0.2-0.3,0.3-0.7,0.2c-1.3-0.1-2.4-0.1-3.3,0c-0.2,0-0.3,0-0.3,0c0,0-0.1-0.1-0.1-0.3c0-0.2,0.2-0.2,0.4-0.3
			c0.6-0.1,0.9-0.6,1-1.5l0.9-7.5c0-0.1,0-0.3,0-0.4c0-0.5-0.3-0.8-0.8-1.1c-0.2-0.1-0.3-0.2-0.2-0.4C45.4,8,45.7,7.9,46,8
			c0.3,0.1,1.2,0.1,2.6,0.1c1.5,0,2.7,0,3.8-0.1C52.8,7.9,53,8,53,8C53,8,53,8.1,53,8.1z"/>
		<path class="st0" d="M61,18.2c-0.7,0.9-1.3,1.4-1.9,1.4c-0.5,0-0.8-0.3-0.8-0.8c0-0.3,0-0.7,0.1-1.3c0-0.1,0-0.1-0.1-0.1
			c0,0-0.1,0-0.1,0.1c-0.9,1.5-1.8,2.2-2.7,2.2c-0.4,0-0.8-0.1-1.1-0.4C54.2,19,54,18.6,54,18.1c0-0.4,0.2-1.2,0.5-2.5
			c0.2-1,0.3-1.6,0.3-1.8c0-0.2-0.1-0.3-0.3-0.3c-0.2,0-0.5,0.3-0.9,0.8c0,0,0,0,0,0c-0.1,0-0.1,0-0.2-0.1s-0.1-0.1-0.1-0.2
			c0,0,0-0.1,0-0.1c0.7-0.9,1.4-1.4,1.9-1.4c0.6,0,0.9,0.2,0.9,0.7c0,0.2-0.1,1-0.4,2.3c-0.3,1.2-0.4,1.8-0.4,2
			c0,0.6,0.3,0.9,0.8,0.9c0.4,0,0.9-0.4,1.4-1.2c0.6-0.8,0.9-1.8,1.1-3L59,13c0-0.2,0.3-0.4,0.8-0.4c0.3,0,0.5,0,0.5,0.1
			c0,0,0,0.1,0,0.2c-0.5,2.6-0.7,4.2-0.7,5c0,0.6,0.1,0.8,0.3,0.8c0.2,0,0.5-0.3,0.9-0.8c0,0,0,0,0,0c0,0,0.1,0,0.2,0.1
			S61,18.1,61,18.2C61,18.1,61,18.2,61,18.2z"/>
		<path class="st0" d="M69.4,18.2c-0.7,0.9-1.3,1.4-1.9,1.4c-0.6,0-0.9-0.2-0.9-0.7c0-0.2,0.1-1,0.4-2.3c0.3-1.2,0.4-1.8,0.4-2
			c0-0.6-0.3-0.9-0.8-0.9c-0.4,0-0.9,0.4-1.4,1.2c-0.5,0.8-0.9,1.8-1.1,3l-0.3,1.3c0,0.3-0.3,0.4-0.8,0.4c-0.2,0-0.3,0-0.4-0.1
			s-0.1-0.1-0.1-0.2c0.1-0.8,0.3-1.6,0.4-2.4c0.2-1,0.2-1.8,0.2-2.5c0-0.6-0.1-0.8-0.3-0.8c-0.2,0-0.5,0.3-0.9,0.8c0,0,0,0-0.1,0
			c-0.1,0-0.1,0-0.2-0.1s-0.1-0.1-0.1-0.2c0,0,0,0,0-0.1c0.7-0.9,1.4-1.4,1.9-1.4c0.5,0,0.8,0.3,0.8,0.9c0,0.3,0,0.7-0.1,1.3
			c0,0,0,0.1,0.1,0.1s0.1,0,0.1-0.1c0.9-1.5,1.8-2.2,2.7-2.2c1,0,1.5,0.5,1.5,1.6c0,0.2-0.2,1.1-0.5,2.5c-0.2,1-0.3,1.6-0.3,1.8
			c0,0.2,0.1,0.3,0.3,0.3c0.1,0,0.5-0.3,0.9-0.8c0,0,0,0,0,0c0.1,0,0.1,0,0.2,0.1C69.4,18,69.4,18.1,69.4,18.2
			C69.4,18.2,69.4,18.2,69.4,18.2z"/>
		<path class="st0" d="M77.6,18.3c-0.7,0.9-1.4,1.4-1.9,1.4c-0.5,0-0.8-0.3-0.8-0.8c0-0.3,0-0.8,0.1-1.3c0-0.1,0-0.1,0-0.1
			c0,0-0.1,0-0.1,0.1c-0.3,0.5-0.7,1-1.1,1.4c-0.6,0.5-1.1,0.8-1.5,0.8c-0.6,0-1-0.2-1.3-0.6s-0.5-0.9-0.5-1.7
			c0-1.4,0.4-2.5,1.3-3.5c0.8-1,1.7-1.5,2.5-1.5c0.5,0,0.9,0.1,1.4,0.2c0,0,0.1-0.1,0.1-0.4l0.6-3.7c0.1-0.4,0-0.6-0.2-0.6
			c-0.3,0-0.7,0.1-1.4,0.3c-0.1,0-0.1,0-0.2-0.1s0-0.2,0-0.2C75.8,7.3,76.7,7,77,7c0.4,0,0.6,0.2,0.6,0.6c0,0,0,0.1,0,0.1
			c-0.3,1.7-0.7,4.4-1.3,8c-0.1,0.9-0.2,1.6-0.2,2.1c0,0.6,0.1,0.8,0.3,0.8c0.2,0,0.5-0.3,0.9-0.8c0,0,0,0,0,0c0.1,0,0.1,0,0.2,0.1
			S77.6,18.2,77.6,18.3C77.6,18.2,77.6,18.3,77.6,18.3z M75.3,14.4c0-0.6-0.5-0.9-1.4-0.9c-0.6,0-1,0.3-1.4,1
			c-0.4,0.7-0.6,1.6-0.6,2.7c0,0.9,0.3,1.4,1,1.4c0.6,0,1.1-0.5,1.7-1.6C75,16.1,75.3,15.2,75.3,14.4z"/>
		<path class="st0" d="M85.8,18.2c-0.7,0.9-1.3,1.4-1.9,1.4c-0.5,0-0.8-0.3-0.8-0.8c0-0.4,0.1-0.9,0.2-1.7c0-0.1,0-0.1,0-0.1
			c0,0-0.1,0-0.1,0.1c-1,1.7-2,2.6-3,2.6c-1,0-1.5-0.6-1.5-1.7c0-1.4,0.5-2.7,1.6-3.8c1-1,2-1.5,3-1.5c0.3,0,0.6,0.1,1,0.2
			c0.1,0,0.2,0,0.3-0.2c0.2-0.2,0.4-0.3,0.5-0.3c0.1,0,0.1,0,0.2,0.1s0.1,0.1,0.1,0.2c0,0.1-0.1,0.3-0.1,0.5
			c-0.6,1.6-0.8,3.2-0.8,4.7c0,0.6,0.1,0.8,0.3,0.8s0.5-0.3,0.9-0.8c0,0,0,0,0,0c0.1,0,0.1,0,0.2,0.1C85.8,18,85.8,18.1,85.8,18.2
			C85.8,18.2,85.8,18.2,85.8,18.2z M83.5,14.4c0-0.6-0.3-0.9-1-0.9c-0.6,0-1.1,0.4-1.7,1.2c-0.6,0.8-0.9,1.7-0.9,2.7
			c0,0.8,0.3,1.2,0.9,1.2c0.6,0,1.2-0.6,1.8-1.7C83.2,15.9,83.5,15.1,83.5,14.4z"/>
		<path class="st0" d="M92.4,13.5c0,0.2-0.1,0.4-0.4,0.7c-0.2,0.3-0.4,0.4-0.6,0.4c-0.1,0-0.3-0.2-0.5-0.5c-0.3-0.4-0.6-0.7-0.8-0.7
			c-0.6,0-1,0.3-1.4,0.8c-0.4,0.6-0.6,1.3-0.6,2.3c0,0.7,0.1,1.3,0.4,1.7c0.3,0.4,0.6,0.6,1,0.6c0.5,0,1-0.2,1.5-0.6
			c0.2-0.2,0.4-0.2,0.5-0.1c0.1,0.1,0.2,0.2,0.2,0.3c0,0.1,0,0.1-0.1,0.2c-0.8,0.8-1.6,1.2-2.5,1.2c-1.6,0-2.3-0.9-2.3-2.6
			c0-1.4,0.4-2.5,1.2-3.3c0.7-0.8,1.5-1.2,2.5-1.2C91.7,12.6,92.4,12.9,92.4,13.5z"/>
		<path class="st0" d="M96.7,18.2c-0.8,0.9-1.4,1.4-2,1.4c-0.6,0-0.9-0.2-0.9-0.7c0-0.2,0.2-1,0.5-2.4c0.4-1.7,0.7-2.6,0.7-2.8
			c0-0.2-0.1-0.3-0.3-0.3c-0.2,0-0.5,0.3-0.9,0.8c0,0,0,0-0.1,0c-0.1,0-0.1,0-0.2-0.1s-0.1-0.1-0.1-0.2c0,0,0,0,0-0.1
			c0.8-0.9,1.4-1.4,2-1.4c0.6,0,0.9,0.2,0.9,0.7c0,0.3-0.2,1.1-0.5,2.3c-0.4,1.6-0.7,2.6-0.7,2.8c0,0.2,0.1,0.3,0.3,0.3
			c0.2,0,0.5-0.3,0.9-0.8c0,0,0,0,0,0c0.1,0,0.1,0,0.2,0.1S96.7,18.1,96.7,18.2C96.7,18.2,96.7,18.2,96.7,18.2z M97,9.4
			c0,0.3-0.1,0.5-0.3,0.8c-0.2,0.2-0.5,0.3-0.7,0.3c-0.3,0-0.5-0.1-0.7-0.2C95.1,10.1,95,9.9,95,9.6c0-0.3,0.1-0.5,0.4-0.7
			s0.5-0.3,0.7-0.3C96.7,8.5,97,8.8,97,9.4z"/>
		<path class="st0" d="M104.4,15.3c0,1.2-0.4,2.3-1.1,3.1c-0.7,0.8-1.5,1.2-2.5,1.2c-1.7,0-2.5-1-2.5-2.9c0-1.2,0.4-2.3,1.1-3.1
			c0.7-0.8,1.5-1.1,2.5-1.1c0.8,0,1.4,0.2,1.9,0.7C104.2,13.8,104.4,14.4,104.4,15.3z M103,15.8c0-1.6-0.5-2.5-1.4-2.5
			c-0.6,0-1,0.3-1.3,0.8s-0.5,1.3-0.5,2.3c0,1.6,0.5,2.4,1.5,2.4c0.5,0,1-0.3,1.3-0.8S103,16.7,103,15.8z M104.4,8.6
			c0,0.1-0.1,0.3-0.2,0.5c-0.8,0.8-1.6,1.6-2.6,2.3c-0.1,0.1-0.3,0.1-0.5,0c-0.1-0.1-0.2-0.2-0.1-0.2c0.4-0.5,0.8-1,1.2-1.8
			c0.4-0.7,0.6-1,0.7-1.1c0.2-0.2,0.4-0.3,0.5-0.3c0.2,0,0.5,0.1,0.7,0.2C104.3,8.4,104.4,8.5,104.4,8.6z"/>
		<path class="st0" d="M113,18.2c-0.7,0.9-1.3,1.4-1.9,1.4c-0.6,0-0.9-0.2-0.9-0.7c0-0.2,0.1-1,0.4-2.3c0.3-1.2,0.4-1.8,0.4-2
			c0-0.6-0.3-0.9-0.8-0.9c-0.4,0-0.9,0.4-1.4,1.2c-0.5,0.8-0.9,1.8-1.1,3l-0.3,1.3c0,0.3-0.3,0.4-0.8,0.4c-0.2,0-0.3,0-0.4-0.1
			s-0.1-0.1-0.1-0.2c0.1-0.8,0.3-1.6,0.4-2.4c0.2-1,0.2-1.8,0.2-2.5c0-0.6-0.1-0.8-0.3-0.8c-0.2,0-0.5,0.3-0.9,0.8c0,0,0,0-0.1,0
			c-0.1,0-0.1,0-0.2-0.1s-0.1-0.1-0.1-0.2c0,0,0,0,0-0.1c0.7-0.9,1.4-1.4,1.9-1.4c0.5,0,0.8,0.3,0.8,0.9c0,0.3,0,0.7-0.1,1.3
			c0,0,0,0.1,0.1,0.1s0.1,0,0.1-0.1c0.9-1.5,1.8-2.2,2.7-2.2c1,0,1.5,0.5,1.5,1.6c0,0.2-0.2,1.1-0.5,2.5c-0.2,1-0.3,1.6-0.3,1.8
			c0,0.2,0.1,0.3,0.3,0.3c0.1,0,0.5-0.3,0.9-0.8c0,0,0,0,0,0c0.1,0,0.1,0,0.2,0.1C113,18,113.1,18.1,113,18.2
			C113.1,18.2,113.1,18.2,113,18.2z"/>
		<path class="st0" d="M51.4,31.4c0,0.2-0.1,0.2-0.2,0.2c-0.5-0.1-1.3-0.1-2.3,0c-0.2,0-0.3,0-0.3-0.1c0-0.1,0.1-0.2,0.2-0.3
			c0.4-0.2,0.7-0.3,0.7-0.5c0-0.1,0-0.1,0-0.2c-0.1-0.4-0.3-0.9-0.5-1.7c-0.3,0-0.8,0-1.4,0c-0.6,0-1,0-1.4,0
			c-0.1,0.2-0.3,0.7-0.7,1.4c-0.1,0.2-0.1,0.3-0.1,0.4c0,0.2,0.1,0.3,0.3,0.4c0.3,0.2,0.5,0.3,0.5,0.3c0,0,0,0,0,0
			c0,0.1-0.1,0.2-0.4,0.2c-0.6-0.1-1.3-0.1-1.9,0.1c-0.1,0-0.1,0-0.2,0c0,0-0.1-0.1-0.1-0.2c0-0.1,0.1-0.2,0.4-0.3s0.5-0.4,0.8-0.8
			c0.9-1.6,1.5-2.7,1.7-3.1c0.6-1.2,1.1-2.2,1.5-3c0.1-0.2,0.3-0.4,0.5-0.5c0.1,0,0.1,0.1,0.2,0.3c0.6,2.2,1.2,4.3,1.9,6.5
			c0.1,0.4,0.4,0.6,0.7,0.7C51.4,31.3,51.5,31.3,51.4,31.4z M48.8,28.3c-0.2-0.6-0.5-1.6-0.8-2.8c0-0.1,0-0.1-0.1-0.1
			c0,0-0.1,0-0.1,0.1c-0.4,0.7-0.8,1.6-1.4,2.8c0.4,0,0.8,0,1.3,0C48,28.4,48.4,28.4,48.8,28.3z"/>
		<path class="st0" d="M56.1,27.4c0,0.3-0.1,0.5-0.1,0.6c0,0.1-0.1,0.1-0.2,0.1c-0.1,0-0.3-0.1-0.4-0.3c-0.2-0.3-0.5-0.5-0.9-0.5
			c-0.2,0-0.4,0.1-0.5,0.2c-0.1,0.1-0.2,0.2-0.2,0.4c0,0.2,0.1,0.3,0.2,0.5c0.1,0.1,0.2,0.2,0.4,0.3c0.5,0.4,0.9,0.6,1,0.8
			c0.2,0.2,0.3,0.4,0.3,0.7c0,0.4-0.2,0.8-0.5,1.1s-0.8,0.4-1.4,0.4c-0.9,0-1.4-0.2-1.4-0.7c0-0.5,0.1-0.7,0.3-0.7
			c0.2,0,0.3,0.1,0.5,0.3c0.2,0.4,0.5,0.6,1,0.6c0.5,0,0.7-0.2,0.7-0.6c0-0.2,0-0.3-0.1-0.5s-0.3-0.3-0.6-0.5
			c-0.4-0.3-0.7-0.5-0.9-0.7S53,28.5,53,28.3c0-0.4,0.2-0.7,0.5-1s0.7-0.4,1.2-0.4C55.7,26.9,56.1,27,56.1,27.4z"/>
		<path class="st0" d="M61.3,28.4c0,0.9-0.3,1.7-0.8,2.3c-0.6,0.6-1.1,1-1.7,1c-0.3,0-0.6,0-0.9-0.1c-0.1,0.4-0.2,1.1-0.3,1.9
			c0,0.1,0,0.1,0,0.2c0,0.1,0,0.2,0.1,0.2S58,34,58.2,34c0.1,0,0.2,0,0.2,0c0.1,0,0.1,0.1,0.1,0.2c0,0.1-0.1,0.2-0.2,0.2
			c-0.5,0-1,0-1.4,0.1c-0.2,0-0.3,0-0.3-0.1c0,0,0-0.1,0.1-0.3c0.1-0.2,0.1-0.4,0.1-0.4l0.8-5c-0.1,0.1-0.3,0.2-0.7,0.4
			c-0.1,0.1-0.2,0-0.2-0.1c0-0.1,0-0.2,0.1-0.3c0.1-0.1,0.2-0.2,0.4-0.3s0.4-0.3,0.5-0.3c0.1-0.5,0.2-0.8,0.3-1.1
			c0.2-0.5,0.3-0.8,0.5-0.9c0.1-0.1,0.2-0.1,0.3-0.1c0.1,0,0.1,0.1,0.1,0.2c0,0,0,0.1,0,0.2c0,0.2-0.1,0.6-0.2,1.1
			c0.7-0.4,1.2-0.6,1.6-0.6C61,26.9,61.3,27.4,61.3,28.4z M60.4,28.6c0-0.6-0.2-1-0.6-1c-0.3,0-0.7,0.2-1.3,0.5
			c-0.1,0.6-0.2,1.4-0.4,2.6c0.4,0.2,0.8,0.3,1.2,0.3c0.3,0,0.5-0.2,0.8-0.6C60.3,30,60.4,29.4,60.4,28.6z"/>
		<path class="st0" d="M65.9,27.8c0,0.4-0.2,0.8-0.7,1.1c-0.4,0.3-1.2,0.6-2.2,0.8c0,0.4,0.1,0.8,0.3,1c0.2,0.2,0.4,0.3,0.7,0.3
			c0.3,0,0.7-0.1,1.1-0.4c0.1-0.1,0.2-0.1,0.3-0.1c0.1,0.1,0.1,0.1,0.1,0.2c0,0.1,0,0.1-0.1,0.2c-0.6,0.5-1.2,0.7-1.7,0.7
			c-1,0-1.5-0.6-1.5-1.8c0-0.9,0.3-1.6,0.8-2.2c0.5-0.5,1.1-0.8,1.7-0.8C65.5,26.9,65.9,27.2,65.9,27.8z M65,28
			c0-0.2-0.1-0.3-0.2-0.5s-0.3-0.2-0.4-0.2c-0.3,0-0.6,0.2-0.8,0.5c-0.3,0.4-0.4,0.9-0.4,1.4c0.7-0.2,1.2-0.5,1.5-0.6S65,28.3,65,28
			z"/>
		<path class="st0" d="M70.6,27.4c-0.1,0.5-0.3,0.7-0.4,0.7c-0.1,0-0.2,0-0.4-0.1s-0.3-0.1-0.4-0.1c-0.2,0-0.4,0.2-0.7,0.7
			c-0.3,0.5-0.5,1.1-0.7,1.9l-0.2,0.9c0,0.2-0.2,0.3-0.5,0.3c-0.1,0-0.2,0-0.2,0S67,31.5,67,31.4c0.1-0.6,0.2-1.1,0.4-1.7
			c0.1-0.7,0.2-1.3,0.2-1.7c0-0.3-0.1-0.4-0.2-0.4c-0.1,0-0.3,0.2-0.7,0.5c0,0,0,0,0,0c0,0-0.1,0-0.1-0.1s-0.1-0.1-0.1-0.1
			c0,0,0,0,0,0c0.5-0.6,0.9-0.9,1.3-0.9c0.2,0,0.3,0,0.4,0.1s0.1,0.2,0.1,0.4c0,0.1,0,0.4-0.1,0.9c0,0,0,0.1,0,0.1s0.1,0,0.1,0
			c0.2-0.4,0.5-0.7,0.8-0.9c0.4-0.3,0.7-0.5,1.1-0.5c0.3,0,0.4,0.1,0.4,0.2C70.7,27.2,70.7,27.3,70.6,27.4z"/>
		<path class="st0" d="M75.8,27.6c0,0.2-0.1,0.3-0.3,0.3c-0.1,0-0.2,0-0.3,0c-0.1,0-0.2,0-0.2,0.2c0,0,0,0.1,0,0.3
			c0,0.9-0.5,1.6-1.5,1.9c-0.6,0.2-0.8,0.3-0.8,0.5c0,0.1,0.3,0.3,1,0.6c0.6,0.2,1,0.4,1.2,0.6c0.3,0.2,0.4,0.4,0.4,0.7
			c0,0.6-0.3,1-0.8,1.4c-0.5,0.3-1.1,0.5-1.8,0.5c-0.6,0-1.2-0.1-1.5-0.3c-0.4-0.2-0.6-0.5-0.6-0.9c0-0.6,0.5-1.2,1.5-1.6
			c-0.2-0.2-0.3-0.4-0.3-0.5c0-0.2,0.3-0.5,0.8-0.8c-0.7-0.3-1.1-0.8-1.1-1.4c0-0.6,0.2-1,0.6-1.4c0.4-0.4,0.8-0.5,1.3-0.5
			c0.4,0,0.7,0.1,1.1,0.3c0.2,0.1,0.4,0.2,0.8,0.2l0.5,0c0.2,0,0.2,0,0.2,0.1C75.9,27.5,75.9,27.5,75.8,27.6z M74.6,33
			c0-0.3-0.5-0.6-1.4-0.9c-0.2-0.1-0.5-0.2-0.8-0.3c-0.6,0.4-1,0.8-1,1.3c0,0.6,0.5,0.9,1.4,0.9c0.5,0,0.9-0.1,1.2-0.3
			S74.6,33.2,74.6,33z M74.2,28.3c0-0.7-0.3-1-0.9-1c-0.3,0-0.5,0.1-0.7,0.4s-0.3,0.6-0.3,1c0,0.7,0.3,1.1,0.8,1.1
			C73.8,29.8,74.2,29.3,74.2,28.3z"/>
		<path class="st0" d="M80.3,27.8c0,0.4-0.2,0.8-0.7,1.1c-0.4,0.3-1.2,0.6-2.2,0.8c0,0.4,0.1,0.8,0.3,1c0.2,0.2,0.4,0.3,0.7,0.3
			c0.3,0,0.7-0.1,1.1-0.4c0.1-0.1,0.2-0.1,0.3-0.1c0.1,0.1,0.1,0.1,0.1,0.2c0,0.1,0,0.1-0.1,0.2c-0.6,0.5-1.2,0.7-1.7,0.7
			c-1,0-1.5-0.6-1.5-1.8c0-0.9,0.3-1.6,0.8-2.2c0.5-0.5,1.1-0.8,1.7-0.8C79.9,26.9,80.3,27.2,80.3,27.8z M79.4,28
			c0-0.2-0.1-0.3-0.2-0.5s-0.3-0.2-0.4-0.2c-0.3,0-0.6,0.2-0.8,0.5c-0.3,0.4-0.4,0.9-0.4,1.4c0.7-0.2,1.2-0.5,1.5-0.6
			S79.4,28.3,79.4,28z"/>
		<path class="st0" d="M85,27.4c-0.1,0.5-0.3,0.7-0.4,0.7c-0.1,0-0.2,0-0.4-0.1s-0.3-0.1-0.4-0.1c-0.2,0-0.4,0.2-0.7,0.7
			c-0.3,0.5-0.5,1.1-0.7,1.9l-0.2,0.9c0,0.2-0.2,0.3-0.5,0.3c-0.1,0-0.2,0-0.2,0s-0.1-0.1-0.1-0.2c0.1-0.6,0.2-1.1,0.4-1.7
			c0.1-0.7,0.2-1.3,0.2-1.7c0-0.3-0.1-0.4-0.2-0.4c-0.1,0-0.3,0.2-0.7,0.5c0,0,0,0,0,0c0,0-0.1,0-0.1-0.1s-0.1-0.1-0.1-0.1
			c0,0,0,0,0,0c0.5-0.6,0.9-0.9,1.3-0.9c0.2,0,0.3,0,0.4,0.1s0.1,0.2,0.1,0.4c0,0.1,0,0.4-0.1,0.9c0,0,0,0.1,0,0.1s0.1,0,0.1,0
			c0.2-0.4,0.5-0.7,0.8-0.9c0.4-0.3,0.7-0.5,1.1-0.5c0.3,0,0.4,0.1,0.4,0.2C85,27.2,85,27.3,85,27.4z"/>
		<path class="st0" d="M96.1,24.4c0,0.4-0.1,0.8-0.1,1.5c0,0.1-0.1,0.2-0.3,0.2c-0.1,0-0.2,0-0.2-0.1c-0.1-0.6-0.3-1-0.6-1.3
			c-0.3-0.3-0.8-0.4-1.3-0.4c-0.9,0-1.7,0.4-2.4,1.1c-0.7,0.8-1,1.8-1,3c0,0.9,0.2,1.6,0.7,2.1c0.5,0.5,1.1,0.8,1.9,0.8
			c1.2,0,2-0.7,2.6-2c0.1-0.1,0.1-0.2,0.2-0.2c0,0,0.1,0,0.1,0c0.2,0,0.2,0.1,0.2,0.2c-0.2,0.7-0.3,1.2-0.5,1.5
			c-0.1,0.2-0.4,0.4-0.8,0.6c-0.5,0.2-1.2,0.3-2,0.3c-1.2,0-2.1-0.3-2.7-0.9s-0.9-1.4-0.9-2.4c0-1.4,0.5-2.5,1.5-3.4
			c1-0.9,2.1-1.4,3.5-1.4c0.6,0,1.2,0.1,1.6,0.2C95.9,24.1,96.1,24.2,96.1,24.4z"/>
		<path class="st0" d="M101.7,30.7c-0.5,0.6-0.9,0.9-1.3,0.9c-0.4,0-0.6-0.2-0.6-0.5c0-0.1,0.1-0.6,0.3-1.5c0.2-0.8,0.3-1.2,0.3-1.3
			c0-0.4-0.2-0.6-0.6-0.6c-0.3,0-0.6,0.3-1,0.8c-0.4,0.6-0.6,1.2-0.7,2L98,31.3c0,0.2-0.2,0.3-0.6,0.3c-0.1,0-0.2,0-0.2,0
			s-0.1-0.1-0.1-0.2c0.4-2.6,0.7-5,0.9-7.1c0-0.3,0-0.4-0.1-0.4c-0.2,0-0.4,0.1-0.8,0.2c0,0-0.1,0-0.1-0.1s0-0.1,0-0.2
			c0,0,0-0.1,0-0.1c0.8-0.4,1.3-0.6,1.5-0.6c0.3,0,0.5,0.1,0.5,0.4c0,0,0,0.1,0,0.1c-0.2,1.1-0.4,2.7-0.8,4.6c0,0,0,0.1,0,0.1
			c0,0,0.1,0,0.1,0c0.2-0.4,0.5-0.7,0.8-0.9c0.4-0.3,0.8-0.5,1.1-0.5c0.3,0,0.6,0.1,0.7,0.3c0.2,0.2,0.3,0.4,0.3,0.8
			c0,0.1-0.1,0.7-0.3,1.7c-0.2,0.7-0.3,1.1-0.3,1.2c0,0.1,0.1,0.2,0.2,0.2c0.1,0,0.3-0.2,0.6-0.5c0,0,0,0,0,0c0,0,0.1,0,0.1,0.1
			S101.7,30.6,101.7,30.7C101.7,30.6,101.7,30.7,101.7,30.7z"/>
		<path class="st0" d="M104.7,30.7c-0.5,0.6-0.9,0.9-1.3,0.9c-0.4,0-0.6-0.2-0.6-0.5c0-0.1,0.1-0.7,0.4-1.6c0.3-1.1,0.4-1.7,0.4-1.8
			c0-0.1-0.1-0.2-0.2-0.2c-0.1,0-0.3,0.2-0.6,0.5c0,0,0,0,0,0c0,0-0.1,0-0.1-0.1s-0.1-0.1-0.1-0.1c0,0,0,0,0,0
			c0.5-0.6,1-0.9,1.3-0.9c0.4,0,0.6,0.2,0.6,0.5c0,0.2-0.1,0.7-0.4,1.6c-0.3,1.1-0.4,1.7-0.4,1.8c0,0.1,0.1,0.2,0.2,0.2
			c0.1,0,0.3-0.2,0.6-0.5c0,0,0,0,0,0c0,0,0.1,0,0.1,0.1S104.7,30.6,104.7,30.7C104.7,30.6,104.7,30.7,104.7,30.7z M104.9,24.8
			c0,0.2-0.1,0.3-0.2,0.5s-0.3,0.2-0.5,0.2c-0.2,0-0.3-0.1-0.5-0.2s-0.2-0.3-0.2-0.4c0-0.2,0.1-0.3,0.2-0.5s0.3-0.2,0.5-0.2
			C104.7,24.2,104.9,24.4,104.9,24.8z"/>
		<path class="st0" d="M108.1,23.7c-0.4,2.5-0.8,4.4-1.1,5.9c-0.2,0.8-0.2,1.2-0.2,1.2c0,0.1,0.1,0.2,0.2,0.2c0.1,0,0.3-0.2,0.6-0.5
			c0,0,0,0,0,0c0,0,0.1,0,0.1,0.1s0.1,0.1,0.1,0.1c0,0,0,0,0,0c-0.5,0.6-1,0.9-1.3,0.9c-0.4,0-0.6-0.1-0.6-0.4
			c0-0.2,0.1-0.7,0.3-1.6c0.3-1.5,0.6-3.3,0.9-5.3c0-0.3,0-0.4-0.1-0.4c-0.1,0-0.4,0.1-0.8,0.2c-0.1,0-0.1-0.1-0.1-0.2
			c0,0,0-0.1,0-0.1c0.8-0.4,1.4-0.6,1.6-0.6C108,23.2,108.1,23.3,108.1,23.7C108.1,23.6,108.1,23.6,108.1,23.7z"/>
		<path class="st0" d="M112.6,27.8c0,0.4-0.2,0.8-0.7,1.1c-0.4,0.3-1.2,0.6-2.2,0.8c0,0.4,0.1,0.8,0.3,1c0.2,0.2,0.4,0.3,0.7,0.3
			c0.3,0,0.7-0.1,1.1-0.4c0.1-0.1,0.2-0.1,0.3-0.1c0.1,0.1,0.1,0.1,0.1,0.2c0,0.1,0,0.1-0.1,0.2c-0.6,0.5-1.2,0.7-1.7,0.7
			c-1,0-1.5-0.6-1.5-1.8c0-0.9,0.3-1.6,0.8-2.2c0.5-0.5,1.1-0.8,1.7-0.8C112.2,26.9,112.6,27.2,112.6,27.8z M111.6,28
			c0-0.2-0.1-0.3-0.2-0.5s-0.3-0.2-0.4-0.2c-0.3,0-0.6,0.2-0.8,0.5c-0.3,0.4-0.4,0.9-0.4,1.4c0.7-0.2,1.2-0.5,1.5-0.6
			S111.6,28.3,111.6,28z"/>
	</g>
</g>
</svg>
