<?xml version="1.0" encoding="utf-8"?>
<!-- Generator: Adobe Illustrator 21.0.0, SVG Export Plug-In . SVG Version: 6.00 Build 0)  -->
<svg version="1.1" id="Capa_1" xmlns="http://www.w3.org/2000/svg" xmlns:xlink="http://www.w3.org/1999/xlink" x="0px" y="0px"
	 viewBox="0 0 60 25" style="enable-background:new 0 0 60 25;" xml:space="preserve">
<style type="text/css">
	.st0{fill:#FFFFFF;}
</style>
<g>
	<path class="st0" d="M3.3,11l2.1-9h2.3l2,9H8L7.5,8.7h-2L5.1,11H3.3z M5.8,7.4h1.4L6.8,4.8C6.7,4.4,6.7,4,6.6,3.6
		c0-0.2,0-0.4-0.1-0.6h0c0,0.2,0,0.4-0.1,0.6c0,0.4-0.1,0.8-0.2,1.2L5.8,7.4z"/>
	<path class="st0" d="M14.1,4.7c0-0.8-0.1-1.6-1-1.6c-0.6,0-0.9,0.2-0.9,0.8c0,0.7,0.4,0.9,1,1.3c0.6,0.3,1.6,1,2,1.5
		C15.8,7.3,16,7.8,16,8.6c0,1.7-1.1,2.6-2.8,2.6c-2,0-2.7-1.1-2.7-2.7V7.8h1.7v0.5c0,0.9,0.2,1.5,1.1,1.5c0.7,0,1-0.4,1-1.1
		c0-0.5-0.2-0.9-0.7-1.2c-0.9-0.7-2-1.2-2.7-2.1c-0.3-0.4-0.4-0.9-0.4-1.4c0-1.5,0.9-2.4,2.6-2.4c2.7,0,2.6,2.1,2.6,3H14.1z"/>
	<path class="st0" d="M17.4,11V2h3.4c1.6,0,2.1,1.3,2.1,2.6c0,0.8-0.2,1.6-0.8,2.1c-0.5,0.4-1.2,0.6-1.9,0.5H19V11H17.4z M19,5.9
		h0.9c0.7,0,1.2-0.3,1.2-1.4c0-1-0.4-1.2-1.4-1.2H19V5.9z"/>
	<path class="st0" d="M24,11V2h4.7v1.3h-3v2.3h2.8v1.3h-2.8v2.8h3V11H24z"/>
	<path class="st0" d="M31.7,7.1V11H30V2h3.2c1.5,0,2.6,0.5,2.6,2.2c0,1-0.3,2-1.4,2.2v0c1,0.1,1.3,0.8,1.3,1.6c0,0.4,0,2.6,0.4,2.8
		V11h-1.8C34,10.4,34,9.3,34,8.7c0-0.6,0-1.3-0.6-1.5C33,7.1,32.5,7.1,32,7.1H31.7z M31.7,5.8H33c0.6,0,1-0.4,1-1.3
		c0-1-0.4-1.2-1.1-1.2h-1.2V5.8z"/>
	<path class="st0" d="M37.2,5.8c0.1-2.3,0.3-4,2.9-4c1.4,0,2.4,0.4,2.8,1.9c0.1,0.4,0.1,0.7,0.1,1.1h-1.7c0-0.9-0.1-1.6-1.2-1.7
		c-1.3,0-1.2,1.6-1.2,2.3v2.5c0,0.7,0.1,2,1.2,2c1,0,1.3-1,1.2-2.4h-1.2V6.2H43V11h-1.3v-1h0c-0.3,0.9-1,1.2-1.6,1.2
		c-2.8,0-2.9-1.8-2.9-4.1V5.8z"/>
	<path class="st0" d="M44.7,11V2h4.7v1.3h-3v2.3h2.8v1.3h-2.8v2.8h3V11H44.7z"/>
	<path class="st0" d="M52.4,7.1V11h-1.7V2h3.2c1.5,0,2.6,0.5,2.6,2.2c0,1-0.3,2-1.4,2.2v0c1,0.1,1.3,0.8,1.3,1.6
		c0,0.4,0,2.6,0.4,2.8V11h-1.8c-0.2-0.6-0.2-1.7-0.2-2.3c0-0.6,0-1.3-0.6-1.5c-0.5-0.1-0.9-0.1-1.4-0.1H52.4z M52.4,5.8h1.3
		c0.6,0,1-0.4,1-1.3c0-1-0.4-1.2-1.1-1.2h-1.2V5.8z"/>
	<path class="st0" d="M8.2,16.7c0-1.1-0.4-2-1.6-2c-1.7,0-1.8,2.5-1.8,3.6c0,1.2-0.1,3.9,1.8,3.9c1.2,0,1.4-1,1.6-2
		c0-0.2,0-0.4,0.1-0.6h1c0,0.2,0,0.4,0,0.6c-0.1,0.7-0.1,1.3-0.5,1.9c-0.5,0.6-1.1,1-2,1c-2.8,0-2.9-2.7-2.9-4.8
		c0-2,0.3-4.6,2.9-4.6c1.7,0,2.6,1.3,2.5,2.9H8.2z"/>
	<path class="st0" d="M10.8,23v-9h1v3.8h3.4V14h1v9h-1v-4.3h-3.4V23H10.8z"/>
	<path class="st0" d="M18.4,23v-9h1v9H18.4z"/>
	<path class="st0" d="M21.5,23v-9h1v8.1h3.7V23H21.5z"/>
	<path class="st0" d="M27.4,23v-9h4.5v0.9h-3.5v3h3.3v0.9h-3.3v3.3H32V23H27.4z"/>
</g>
</svg>
